<?xml version="1.0" encoding="UTF-8" standalone="no"?>
<!-- Created with Inkscape (http://www.inkscape.org/) -->

<svg
   xmlns:dc="http://purl.org/dc/elements/1.1/"
   xmlns:cc="http://creativecommons.org/ns#"
   xmlns:rdf="http://www.w3.org/1999/02/22-rdf-syntax-ns#"
   xmlns:svg="http://www.w3.org/2000/svg"
   xmlns="http://www.w3.org/2000/svg"
   xmlns:sodipodi="http://sodipodi.sourceforge.net/DTD/sodipodi-0.dtd"
   xmlns:inkscape="http://www.inkscape.org/namespaces/inkscape"
   width="1002.3514mm"
   height="241.73665mm"
   viewBox="0 0 1002.3514 241.73665"
   version="1.1"
   id="svg8"
   inkscape:version="0.92.3 (2405546, 2018-03-11)"
   sodipodi:docname="lclogorectanglewtext.svg">
  <defs
     id="defs2" />
  <sodipodi:namedview
     id="base"
     pagecolor="#ffffff"
     bordercolor="#666666"
     borderopacity="1.0"
     inkscape:pageopacity="0.0"
     inkscape:pageshadow="2"
     inkscape:zoom="0.175"
     inkscape:cx="1644.9193"
     inkscape:cy="917.69163"
     inkscape:document-units="mm"
     inkscape:current-layer="layer1"
     showgrid="false"
     inkscape:showpageshadow="false"
     inkscape:pagecheckerboard="true"
     inkscape:window-width="1920"
     inkscape:window-height="1001"
     inkscape:window-x="-9"
     inkscape:window-y="41"
     inkscape:window-maximized="1" />
  <metadata
     id="metadata5">
    <rdf:RDF>
      <cc:Work
         rdf:about="">
        <dc:format>image/svg+xml</dc:format>
        <dc:type
           rdf:resource="http://purl.org/dc/dcmitype/StillImage" />
        <dc:title></dc:title>
      </cc:Work>
    </rdf:RDF>
  </metadata>
  <g
     inkscape:label="Layer 1"
     inkscape:groupmode="layer"
     id="layer1"
     transform="translate(202.76895,225.27903)">
    <g
       id="g172"
       transform="matrix(1.2688928,0,0,1.2688928,-1763.972,14.898061)"
       style="stroke-width:0.64989084">
      <path
         style="opacity:1;vector-effect:none;fill:none;fill-opacity:1;stroke:#ffffff;stroke-width:13.75602245;stroke-linecap:round;stroke-linejoin:miter;stroke-miterlimit:4;stroke-dasharray:none;stroke-dashoffset:0;stroke-opacity:1;paint-order:markers stroke fill"
         d="m 1267.4134,-96.759726 c 23.2404,-43.804544 66.9263,-66.009894 113.2271,-66.324924 48.2412,1.5141 92.5046,23.91352 113.2269,66.32496"
         id="path144"
         inkscape:connector-curvature="0"
         sodipodi:nodetypes="ccc" />
      <path
         style="opacity:1;vector-effect:none;fill:#ffffff;fill-opacity:1;stroke:none;stroke-width:5.5024085;stroke-linecap:round;stroke-linejoin:miter;stroke-miterlimit:4;stroke-dasharray:none;stroke-dashoffset:0;stroke-opacity:1;paint-order:markers stroke fill"
         d="m 1354.4442,-189.28084 h 52.3924 v 52.39236 h -52.3924 z"
         id="rect146" />
      <path
         transform="rotate(45)"
         style="opacity:1;vector-effect:none;fill:#ffffff;fill-opacity:1;stroke:none;stroke-width:5.5024085;stroke-linecap:round;stroke-linejoin:miter;stroke-miterlimit:4;stroke-dasharray:none;stroke-dashoffset:0;stroke-opacity:1;paint-order:markers stroke fill"
         d="m 795.76196,-996.63123 h 52.39236 v 52.39236 h -52.39236 z"
         id="rect148" />
      <path
         transform="rotate(45)"
         style="opacity:1;vector-effect:none;fill:#ffffff;fill-opacity:1;stroke:none;stroke-width:5.5024085;stroke-linecap:round;stroke-linejoin:miter;stroke-miterlimit:4;stroke-dasharray:none;stroke-dashoffset:0;stroke-opacity:1;paint-order:markers stroke fill"
         d="m 955.88916,-1156.7584 h 52.39234 v 52.3923 h -52.39234 z"
         id="rect150" />
      <path
         transform="matrix(1.7820741,0,0,2.3294091,-727.43816,94.819246)"
         style="opacity:1;vector-effect:none;fill:#ffffff;fill-opacity:1;stroke:none;stroke-width:1.35032117;stroke-linecap:round;stroke-linejoin:miter;stroke-miterlimit:4;stroke-dasharray:none;stroke-dashoffset:0;stroke-opacity:1;paint-order:markers stroke fill"
         inkscape:transform-center-x="2.0811616e-005"
         inkscape:transform-center-y="-9.8581293"
         d="m 1156.8094,-40.177646 13.0628,-22.625354 13.0627,-22.625354 13.0628,22.625354 13.0627,22.625355 -26.1255,-1e-6 z"
         id="path152" />
    </g>
    <g
       aria-label="Locke Creatives"
       style="font-style:normal;font-variant:normal;font-weight:normal;font-stretch:normal;font-size:99.97544098px;line-height:1.25;font-family:'Segoe Print';-inkscape-font-specification:'Segoe Print';letter-spacing:0px;word-spacing:0px;fill:#ffffff;fill-opacity:1;stroke:none;stroke-width:0.21818645"
       id="text156">
      <path
         d="m 199.53461,-58.963318 -6.98071,62.0453054 18.69658,-0.732242 q 1.26922,0.048816 1.26922,1.2692195 l -1.26922,10.1049391 q -0.14645,1.26922 -1.26922,1.318036 l -30.07073,1.073955 q -1.02514,0 -1.02514,-0.927507 l 8.34756,-73.858809 q 0.0976,-0.585794 0.29289,-0.829874 0.24408,-0.244081 0.92751,-0.292897 l 9.81204,-0.341713 q 1.26922,0.04882 1.26922,1.171587 z"
         style="font-style:normal;font-variant:normal;font-weight:normal;font-stretch:normal;font-family:'Contrail One';-inkscape-font-specification:'Contrail One';text-align:center;text-anchor:middle;fill:#ffffff;stroke:none;stroke-width:0.21818645"
         id="path4723" />
      <path
         d="m 239.7591,16.457608 q -8.64045,0 -12.69219,-5.17451 -4.00292,-5.2233265 -4.00292,-15.1818177 0,-4.6375326 1.02514,-12.1064013 1.02513,-7.468868 1.90382,-10.837181 0.87869,-3.41713 2.48963,-6.638994 1.61093,-3.270681 3.80766,-5.369775 4.83279,-4.686349 13.08272,-4.686349 11.71587,0 15.18182,8.59164 1.85501,4.588716 1.85501,11.130078 0,6.492546 -1.02514,13.473253 -0.97632,6.9807068 -1.85501,10.34902 -0.87869,3.3194971 -2.48962,6.5413619 -1.56212,3.1730486 -3.75885,5.2721421 -4.83279,4.637533 -13.52207,4.637533 z m 8.64046,-21.3814665 q 0.53698,-2.587255 1.36685,-9.6655945 0.87869,-7.127155 0.87869,-10.544285 0,-8.298742 -6.00438,-8.298742 -2.83134,0 -4.68635,2.684887 -1.8062,2.684887 -2.92897,8.933352 -2.24554,12.6921951 -2.24554,20.6004087 0,7.9082136 5.95557,7.9082136 2.83133,0 4.68635,-2.6848874 1.90382,-2.7337034 2.97778,-8.9333524 z"
         style="font-style:normal;font-variant:normal;font-weight:normal;font-stretch:normal;font-family:'Contrail One';-inkscape-font-specification:'Contrail One';text-align:center;text-anchor:middle;fill:#ffffff;stroke:none;stroke-width:0.21818645"
         id="path4725" />
      <path
         d="m 306.83247,-42.02412 q 1.07396,0.390529 1.07396,1.855013 l -1.12277,8.83572 q -0.0976,0.976323 -1.36686,0.976323 -1.2204,0 -2.34317,-0.488161 -4.73517,-2.099094 -7.8594,-2.099094 -3.12423,0 -4.97924,2.587255 -1.85502,2.587255 -2.97779,7.420052 -2.09909,9.030985 -2.09909,16.4998534 0,12.0087688 6.19965,12.0087688 4.49108,0 7.2736,-1.1227711 2.78252,-1.1715872 3.61239,-1.1715872 1.70857,0 1.70857,1.464484 l -1.02514,8.5916391 q -0.0976,0.878691 -0.39053,1.073955 -0.24408,0.146449 -0.68342,0.341713 -5.90676,1.708565 -11.13008,1.708565 -5.17451,0 -8.20111,-1.318036 -2.97779,-1.318035 -4.73517,-3.368313 -1.75738,-2.0990936 -2.83133,-5.0280616 -1.90383,-5.0280617 -1.90383,-12.3504817 0,-7.3712357 0.9275,-12.7898267 0.97633,-5.467407 2.00147,-8.884537 1.07395,-3.417129 2.83133,-6.541361 1.75738,-3.173049 4.10056,-5.223327 5.12569,-4.491084 13.57088,-4.491084 5.66267,0 10.34902,1.5133 z"
         style="font-style:normal;font-variant:normal;font-weight:normal;font-stretch:normal;font-family:'Contrail One';-inkscape-font-specification:'Contrail One';text-align:center;text-anchor:middle;fill:#ffffff;stroke:none;stroke-width:0.21818645"
         id="path4727" />
      <path
         d="m 353.2078,14.895492 q 0,0.87869 -1.31803,0.87869 l -10.39784,0.341713 q -0.73224,-0.04882 -1.07395,-0.927507 l -9.95849,-28.069276 -3.07542,27.337034 q -0.0976,0.683426 -0.34171,0.976323 -0.24408,0.292897 -0.92751,0.341713 l -9.81204,0.341713 q -1.07396,-0.09763 -1.07396,-0.927507 l 9.03099,-80.204907 q 0.0976,-0.683425 0.34171,-0.976322 0.24408,-0.292897 0.92751,-0.341713 l 9.56796,-0.341713 q 1.26922,0.146448 1.26922,1.318036 l -5.56504,49.401926 12.98509,-25.579653 q 0.58579,-1.171588 1.61093,-1.220404 l 10.10494,-0.341713 q 1.22041,0.146449 1.22041,1.122771 0,0.536978 -0.19527,0.976323 l -14.59602,25.335573 11.13008,29.973106 q 0.14644,0.341713 0.14644,0.585794 z"
         style="font-style:normal;font-variant:normal;font-weight:normal;font-stretch:normal;font-family:'Contrail One';-inkscape-font-specification:'Contrail One';text-align:center;text-anchor:middle;fill:#ffffff;stroke:none;stroke-width:0.21818645"
         id="path4729" />
      <path
         d="m 366.19288,6.7920135 q -1.12277,-2.928968 -1.56211,-5.7603037 -0.39053,-2.8801519 -0.39053,-7.8593975 0,-4.9792453 1.07395,-12.3016653 3.56358,-24.408067 22.16253,-24.408067 7.17597,0 10.98363,4.93043 3.80765,4.930429 3.80765,12.789826 0,7.859398 -0.97632,15.27945 -0.14645,1.3180358 -1.5133,1.3668519 l -24.11517,0.8298743 q -0.0488,0.732242 -0.0488,1.9526453 0,5.5162231 1.90383,8.7380879 1.95264,3.2218648 5.85793,3.2218648 3.90529,0 7.22479,-1.1227711 3.36831,-1.1715872 3.95411,-1.1715872 0.58579,0 1.02513,0.3905291 0.43935,0.3905291 0.43935,1.0739549 l -0.97632,8.5916391 q -0.0488,0.732242 -0.2929,0.976323 -0.19526,0.195265 -0.82987,0.439345 -5.90676,1.708565 -11.37416,1.708565 -5.46741,0 -8.49401,-1.318036 -3.0266,-1.318035 -4.88161,-3.368313 -1.8062,-2.0990936 -2.97779,-4.9792455 z m 10.64192,-27.3858505 -0.43935,3.124232 12.74101,-0.634609 q 0.82988,-0.04882 1.07396,-0.292897 0.73224,-0.732242 0.73224,-4.002923 0,-3.319497 -0.24408,-4.637533 -0.19526,-1.366852 -0.73224,-2.782519 -1.12277,-3.124233 -3.85648,-3.124233 -2.68488,0 -4.247,0.927507 -3.46594,2.147909 -5.02806,11.422975 z"
         style="font-style:normal;font-variant:normal;font-weight:normal;font-stretch:normal;font-family:'Contrail One';-inkscape-font-specification:'Contrail One';text-align:center;text-anchor:middle;fill:#ffffff;stroke:none;stroke-width:0.21818645"
         id="path4731" />
      <path
         d="m 463.72753,13.723904 q -0.0976,0.585794 -0.34171,0.829875 -0.24408,0.24408 -4.78398,1.073955 -4.53991,0.829874 -9.17744,0.829874 -7.61531,0 -11.66705,-4.93043 -4.05174,-4.930429 -4.05174,-13.4244362 0,-15.0841848 3.61239,-35.0499838 1.90383,-10.739549 4.68635,-15.084185 2.92897,-4.5399 7.02952,-6.346097 5.1257,-2.245543 10.93482,-2.245543 5.85793,0 7.81058,0.341713 2.00146,0.292897 2.24554,0.341713 0.63461,0.195265 0.63461,1.220404 l -1.12277,9.0798 q -0.19527,1.26922 -0.97632,1.26922 -0.78106,0 -3.6124,-0.390529 -2.83133,-0.439345 -4.58871,-0.439345 -4.68635,0 -7.12716,2.39199 -2.44081,2.343175 -3.66121,9.079801 -1.17159,6.68781 -2.29436,18.013153 -1.12277,11.2765269 -1.12277,17.2809113 0,7.0783394 6.24847,7.0783394 1.80619,0 6.29728,-0.5857936 4.49108,-0.6346098 5.12569,-0.6346098 1.02514,0 1.02514,1.2204034 z"
         style="font-style:normal;font-variant:normal;font-weight:normal;font-stretch:normal;font-family:'Contrail One';-inkscape-font-specification:'Contrail One';text-align:center;text-anchor:middle;fill:#ffffff;stroke:none;stroke-width:0.21818645"
         id="path4733" />
      <path
         d="m 507.75969,-30.649961 -5.22333,-0.536977 q -6.3461,0 -10.64192,2.538439 l -4.83279,43.055829 q -0.19527,1.220404 -1.22041,1.318036 l -9.86085,0.390529 q -1.07396,-0.09763 -1.07396,-0.927507 l 6.44373,-56.773163 q 0.19526,-1.073954 1.2204,-1.171587 l 9.51915,-0.341713 q 1.31803,0.04882 1.31803,1.26922 l -0.58579,5.028062 q 3.12423,-3.173049 6.0532,-4.93043 2.92897,-1.806197 5.85794,-1.806197 2.97778,0 4.5399,0.244081 1.02514,0.195264 1.02514,1.366852 0,3.368313 -1.12277,10.007307 -0.24408,1.269219 -1.41567,1.269219 z"
         style="font-style:normal;font-variant:normal;font-weight:normal;font-stretch:normal;font-family:'Contrail One';-inkscape-font-specification:'Contrail One';text-align:center;text-anchor:middle;fill:#ffffff;stroke:none;stroke-width:0.21818645"
         id="path4735" />
      <path
         d="m 516.93711,6.7920135 q -1.12277,-2.928968 -1.56211,-5.7603037 -0.39053,-2.8801519 -0.39053,-7.8593975 0,-4.9792453 1.07395,-12.3016653 3.56358,-24.408067 22.16253,-24.408067 7.17597,0 10.98363,4.93043 3.80766,4.930429 3.80766,12.789826 0,7.859398 -0.97633,15.27945 -0.14644,1.3180358 -1.5133,1.3668519 l -24.11517,0.8298743 q -0.0488,0.732242 -0.0488,1.9526453 0,5.5162231 1.90383,8.7380879 1.95264,3.2218648 5.85793,3.2218648 3.90529,0 7.22479,-1.1227711 3.36831,-1.1715872 3.95411,-1.1715872 0.58579,0 1.02514,0.3905291 0.43934,0.3905291 0.43934,1.0739549 l -0.97632,8.5916391 q -0.0488,0.732242 -0.2929,0.976323 -0.19526,0.195265 -0.82987,0.439345 -5.90675,1.708565 -11.37416,1.708565 -5.46741,0 -8.49401,-1.318036 -3.0266,-1.318035 -4.88161,-3.368313 -1.8062,-2.0990936 -2.97779,-4.9792455 z m 10.64192,-27.3858505 -0.43934,3.124232 12.74101,-0.634609 q 0.82987,-0.04882 1.07395,-0.292897 0.73224,-0.732242 0.73224,-4.002923 0,-3.319497 -0.24408,-4.637533 -0.19526,-1.366852 -0.73224,-2.782519 -1.12277,-3.124233 -3.85647,-3.124233 -2.68489,0 -4.24701,0.927507 -3.46594,2.147909 -5.02806,11.422975 z"
         style="font-style:normal;font-variant:normal;font-weight:normal;font-stretch:normal;font-family:'Contrail One';-inkscape-font-specification:'Contrail One';text-align:center;text-anchor:middle;fill:#ffffff;stroke:none;stroke-width:0.21818645"
         id="path4737" />
      <path
         d="m 605.68483,-41.828855 -6.3461,56.285001 q -0.14645,1.26922 -1.26922,1.318036 l -9.86086,0.341713 q -1.02514,-0.09763 -1.02514,-0.927507 l 0.92751,-6.6389937 q -2.24554,3.8076587 -4.93043,5.8579357 -2.63607,2.050278 -5.95557,2.050278 -3.3195,0 -5.66267,-1.122771 -2.34318,-1.171587 -3.85648,-3.0266 -1.46448,-1.90383 -2.39199,-4.5399008 -1.70856,-4.6863488 -1.70856,-12.7898269 0,-8.1522943 1.07395,-13.8149653 1.12277,-5.662672 1.95265,-8.59164 0.82987,-2.977784 2.19673,-6.102017 1.41566,-3.124232 3.17304,-5.223326 4.00293,-4.783981 10.10494,-4.783981 4.5399,0 6.93189,2.196726 2.39199,2.14791 4.00293,6.394914 l 0.58579,-6.638995 q 0.0976,-1.073954 1.2204,-1.171587 l 9.56797,-0.341713 q 1.26922,0.09763 1.26922,1.26922 z m -29.77785,35.3916964 q 0,11.6670559 6.24847,11.6670559 2.7337,0 4.44227,-2.4896228 1.70856,-2.53843896 2.92897,-10.1049396 1.26922,-7.5665009 1.26922,-11.0324459 0,-3.465946 -0.0488,-4.393452 -0.0488,-0.927507 -0.19527,-2.440807 -0.14644,-1.562116 -0.53697,-2.587255 -0.39053,-1.073955 -1.02514,-2.14791 -1.26922,-2.099094 -4.10056,-2.099094 -2.83133,0 -4.49108,2.538439 -1.65975,2.489623 -2.58726,6.687811 -1.90383,8.982168 -1.90383,16.4022204 z"
         style="font-style:normal;font-variant:normal;font-weight:normal;font-stretch:normal;font-family:'Contrail One';-inkscape-font-specification:'Contrail One';text-align:center;text-anchor:middle;fill:#ffffff;stroke:none;stroke-width:0.21818645"
         id="path4739" />
      <path
         d="m 621.6477,-42.90281 q 1.12277,-10.739549 1.46448,-11.081262 0.34172,-0.390529 1.02514,-0.439346 l 9.32388,-0.341713 q 1.31804,0.09763 1.31804,1.220404 -0.92751,5.418591 -1.56212,10.397836 l 11.37416,-0.390529 q 1.17159,0.04882 1.17159,1.26922 l -1.36685,7.761765 q -0.19527,1.171587 -1.22041,1.220403 l -11.17889,0.439345 q -3.3195,29.8754739 -3.3195,32.95089027 0,5.71148763 4.88162,5.71148763 2.48962,0 4.83279,-0.7810582 2.34318,-0.7810581 2.92897,-0.7810581 1.02514,0 1.02514,1.2692195 l -1.02514,8.5428229 q -0.0976,0.732242 -0.39053,1.073955 -0.24408,0.341713 -2.39199,0.829875 -2.09909,0.488161 -7.22479,0.488161 -7.51768,0 -11.13007,-3.465946 -3.6124,-3.5147611 -3.6124,-10.4466521 0,-6.9318909 3.85648,-35.2452479 l -4.78398,0.195264 q -1.22041,-0.04882 -1.22041,-1.220403 l 1.31804,-7.859398 q 0.14645,-1.122771 1.26922,-1.171587 z"
         style="font-style:normal;font-variant:normal;font-weight:normal;font-stretch:normal;font-family:'Contrail One';-inkscape-font-specification:'Contrail One';text-align:center;text-anchor:middle;fill:#ffffff;stroke:none;stroke-width:0.21818645"
         id="path4741" />
      <path
         d="m 663.33669,-48.419033 q -3.0266,0 -4.8328,-1.903829 -1.8062,-1.90383 -1.8062,-4.881614 0,-3.0266 2.39199,-5.369774 2.44081,-2.391991 5.46741,-2.391991 3.0266,0 4.88161,1.903829 1.90383,1.903829 1.90383,4.93043 0,2.977784 -2.48962,5.369774 -2.48962,2.343175 -5.51622,2.343175 z m 5.41859,6.590178 -6.3461,56.285001 q -0.0976,0.683426 -0.34171,0.976323 -0.24408,0.292897 -0.92751,0.341713 l -9.81204,0.341713 q -1.07396,-0.09763 -1.07396,-0.927507 l 6.44373,-56.773163 q 0.19527,-1.073954 1.22041,-1.171587 l 9.51914,-0.341713 q 1.31804,0.09763 1.31804,1.26922 z"
         style="font-style:normal;font-variant:normal;font-weight:normal;font-stretch:normal;font-family:'Contrail One';-inkscape-font-specification:'Contrail One';text-align:center;text-anchor:middle;fill:#ffffff;stroke:none;stroke-width:0.21818645"
         id="path4743" />
      <path
         d="m 694.57902,-0.04224513 11.1789,-41.54252987 q 0.2929,-1.122771 1.31803,-1.171587 l 10.25139,-0.341713 q 1.22041,0.09763 1.22041,1.26922 l -19.86817,56.285001 q -0.43935,1.220404 -1.26922,1.318036 l -10.00731,0.341713 q -0.9275,-0.04882 -1.07395,-0.927507 l -7.61532,-56.773163 q 0.14645,-1.122771 1.2204,-1.171587 l 9.61678,-0.341713 q 1.12277,0.04882 1.22041,1.26922 z"
         style="font-style:normal;font-variant:normal;font-weight:normal;font-stretch:normal;font-family:'Contrail One';-inkscape-font-specification:'Contrail One';text-align:center;text-anchor:middle;fill:#ffffff;stroke:none;stroke-width:0.21818645"
         id="path4745" />
      <path
         d="m 725.47963,6.7920135 q -1.12278,-2.928968 -1.56212,-5.7603037 -0.39053,-2.8801519 -0.39053,-7.8593975 0,-4.9792453 1.07396,-12.3016653 3.56357,-24.408067 22.16252,-24.408067 7.17597,0 10.98363,4.93043 3.80766,4.930429 3.80766,12.789826 0,7.859398 -0.97632,15.27945 -0.14645,1.3180358 -1.5133,1.3668519 l -24.11517,0.8298743 q -0.0488,0.732242 -0.0488,1.9526453 0,5.5162231 1.90383,8.7380879 1.95264,3.2218648 5.85793,3.2218648 3.9053,0 7.22479,-1.1227711 3.36832,-1.1715872 3.95411,-1.1715872 0.58579,0 1.02514,0.3905291 0.43934,0.3905291 0.43934,1.0739549 l -0.97632,8.5916391 q -0.0488,0.732242 -0.2929,0.976323 -0.19526,0.195265 -0.82987,0.439345 -5.90675,1.708565 -11.37416,1.708565 -5.46741,0 -8.49401,-1.318036 -3.0266,-1.318035 -4.88161,-3.368313 -1.8062,-2.0990936 -2.97778,-4.9792455 z m 10.64191,-27.3858505 -0.43934,3.124232 12.74101,-0.634609 q 0.82987,-0.04882 1.07395,-0.292897 0.73225,-0.732242 0.73225,-4.002923 0,-3.319497 -0.24409,-4.637533 -0.19526,-1.366852 -0.73224,-2.782519 -1.12277,-3.124233 -3.85647,-3.124233 -2.68489,0 -4.24701,0.927507 -3.46594,2.147909 -5.02806,11.422975 z"
         style="font-style:normal;font-variant:normal;font-weight:normal;font-stretch:normal;font-family:'Contrail One';-inkscape-font-specification:'Contrail One';text-align:center;text-anchor:middle;fill:#ffffff;stroke:none;stroke-width:0.21818645"
         id="path4747" />
      <path
         d="m 797.62985,-31.723916 -5.51622,-0.24408 q -2.34318,0 -3.71003,1.073955 -1.31803,1.073955 -1.31803,3.124232 0,2.001462 0.73224,4.442268 0.97632,3.270681 3.36831,7.615317 2.44081,4.344636 3.36831,6.1508329 2.83134,5.6138553 2.83134,10.6907332 0,7.3712361 -4.34464,11.3741589 -4.29581,3.954107 -13.08272,3.954107 -4.34463,0 -6.93189,-0.488161 -2.58725,-0.439346 -2.88015,-0.683426 -0.24408,-0.292897 -0.24408,-0.878691 l 1.26922,-9.0309843 q 0.0976,-1.2204034 0.82987,-1.2204034 0.78106,0 2.92897,0.5369775 2.14791,0.5369775 3.75884,0.5369775 5.95557,0 5.95557,-4.73516496 0,-3.36831324 -1.46448,-6.29728124 -1.41567,-2.928968 -3.12424,-6.0532001 -1.65975,-3.124233 -2.58725,-4.979246 -0.92751,-1.903829 -1.95265,-5.223326 -0.97632,-3.319497 -0.97632,-6.248465 0,-6.834259 4.05174,-11.032446 4.10055,-4.198188 11.91114,-4.198188 5.02806,0 7.85939,0.488161 1.22041,0.195265 1.22041,1.26922 l -1.07396,8.689272 q 0,1.366851 -0.87869,1.366851 z"
         style="font-style:normal;font-variant:normal;font-weight:normal;font-stretch:normal;font-family:'Contrail One';-inkscape-font-specification:'Contrail One';text-align:center;text-anchor:middle;fill:#ffffff;stroke:none;stroke-width:0.21818645"
         id="path4749" />
    </g>
  </g>
</svg>
